<?xml version="1.0" standalone="no"?>
<!DOCTYPE svg PUBLIC "-//W3C//DTD SVG 20010904//EN"
 "http://www.w3.org/TR/2001/REC-SVG-20010904/DTD/svg10.dtd">
<svg version="1.0" xmlns="http://www.w3.org/2000/svg"
 width="704.000000pt" height="704.000000pt" viewBox="0 0 704.000000 704.000000"
 preserveAspectRatio="xMidYMid meet">
<metadata>
Created by potrace 1.14, written by Peter Selinger 2001-2017
</metadata>
<g transform="translate(0.000000,704.000000) scale(0.100000,-0.100000)"
fill="#000000" stroke="none">
<path d="M1736 6885 c-9 -13 -16 -29 -16 -35 0 -5 -3 -10 -8 -10 -4 0 -15 -17
-25 -37 -9 -21 -38 -71 -62 -111 -25 -41 -45 -78 -45 -83 0 -5 -4 -9 -10 -9
-5 0 -10 -4 -10 -9 0 -7 -67 -127 -100 -181 -37 -58 -100 -172 -100 -180 0 -6
-4 -10 -9 -10 -5 0 -11 -8 -14 -17 -4 -10 -18 -38 -33 -63 -15 -25 -35 -58
-44 -75 -10 -16 -54 -92 -99 -169 -44 -76 -81 -142 -81 -147 0 -5 -4 -9 -8 -9
-5 0 -14 -16 -22 -35 -8 -19 -17 -35 -20 -35 -4 0 -17 -22 -30 -50 -13 -27
-27 -50 -32 -50 -4 0 -10 -11 -14 -25 -3 -14 -10 -25 -15 -25 -5 0 -9 -5 -9
-11 0 -6 -36 -71 -80 -146 -44 -74 -80 -137 -80 -139 0 -2 -15 -27 -33 -56
-19 -29 -37 -60 -41 -68 -4 -8 -12 -24 -19 -35 -7 -11 -27 -47 -46 -80 -19
-33 -39 -63 -45 -67 -6 -4 -8 -8 -4 -8 4 0 -15 -36 -42 -81 -28 -44 -50 -82
-50 -85 0 -2 -11 -23 -26 -45 -14 -22 -33 -55 -43 -72 -10 -18 -42 -72 -71
-122 -29 -49 -61 -104 -71 -122 -87 -152 -145 -249 -152 -254 -5 -3 -7 -8 -6
-10 2 -2 -21 -44 -49 -92 -29 -48 -52 -92 -52 -97 0 -6 -4 -10 -10 -10 -6 0
-10 -32 -10 -76 l0 -76 72 -122 c39 -66 109 -183 155 -259 46 -77 83 -141 83
-145 0 -3 6 -13 14 -21 7 -9 25 -37 39 -62 43 -78 52 -94 58 -99 7 -5 33 -52
34 -60 0 -3 18 -32 38 -65 21 -33 97 -159 168 -280 72 -121 138 -231 147 -245
9 -14 17 -27 17 -30 0 -3 8 -16 16 -30 21 -32 181 -299 195 -325 14 -25 33
-57 114 -192 35 -59 69 -117 75 -128 6 -11 23 -39 38 -62 15 -24 27 -47 27
-53 0 -5 5 -10 10 -10 6 0 10 -4 10 -10 0 -5 18 -40 40 -77 22 -38 45 -75 50
-83 4 -8 73 -123 152 -254 79 -132 145 -244 148 -250 22 -44 54 -85 78 -96 22
-12 227 -14 1157 -16 l1130 -1 50 -22 c28 -13 64 -29 80 -36 17 -7 59 -25 95
-39 36 -15 74 -31 85 -36 22 -10 139 -58 170 -70 11 -4 22 -7 25 -6 3 0 18 -7
33 -17 15 -9 27 -15 27 -12 0 4 12 0 28 -9 32 -17 67 -32 177 -76 44 -18 104
-43 133 -56 29 -13 58 -24 65 -24 7 0 17 -4 22 -9 6 -5 39 -20 75 -34 36 -14
83 -34 105 -43 22 -10 42 -18 45 -19 3 -1 22 -9 44 -18 21 -9 40 -17 42 -17 2
0 27 -11 56 -23 29 -13 90 -39 136 -57 l82 -34 29 28 c16 16 34 25 40 21 14
-8 18 5 25 75 3 30 8 66 11 80 2 14 7 52 9 85 3 33 8 76 11 95 2 19 7 55 10
80 3 25 8 63 10 85 3 22 8 58 10 80 2 22 6 60 9 85 10 77 15 113 22 175 3 33
8 69 10 80 2 11 7 49 10 85 3 35 7 67 9 70 2 3 6 41 10 85 4 44 9 89 11 100 4
18 8 48 19 155 4 40 15 124 20 158 2 13 7 53 10 90 4 41 16 83 29 107 13 22
31 56 42 75 10 19 21 37 24 40 11 10 150 243 150 251 0 5 3 9 8 9 4 0 23 29
42 65 19 36 38 65 43 65 4 0 7 4 7 9 0 10 60 112 71 121 3 3 8 10 10 15 2 6
33 59 69 119 36 59 72 119 81 134 9 15 65 108 126 207 60 99 178 292 261 428
l152 249 0 93 c0 86 -3 99 -31 152 -18 32 -38 65 -45 74 -8 8 -14 18 -14 21 0
3 -31 61 -70 127 -38 67 -70 126 -70 131 0 6 -4 10 -10 10 -5 0 -10 4 -10 10
0 5 -22 47 -50 94 -27 47 -50 89 -50 95 0 6 -4 11 -10 11 -5 0 -10 4 -10 9 0
10 -193 349 -210 368 -5 7 -10 16 -10 20 0 4 -16 34 -34 65 -19 31 -47 79 -61
105 -31 56 -93 163 -116 201 -9 15 -31 54 -49 87 -18 33 -44 77 -57 97 -12 21
-23 39 -23 42 0 2 -35 64 -78 137 -83 142 -138 240 -156 276 -6 13 -14 23 -18
23 -5 0 -8 5 -8 11 0 6 -17 39 -37 73 -21 33 -37 64 -36 68 1 3 -4 12 -12 18
-8 7 -15 19 -15 26 0 8 -4 14 -10 14 -5 0 -10 4 -10 10 0 5 -67 127 -150 271
-82 143 -150 265 -150 269 0 5 -3 10 -7 12 -5 2 -19 24 -32 50 -14 25 -33 57
-42 70 l-18 23 -1789 3 -1790 2 -16 -25z m2518 -1816 c2 -2 33 -53 70 -114 37
-60 87 -141 112 -180 24 -38 60 -97 80 -130 19 -33 48 -80 64 -105 16 -25 39
-61 50 -80 11 -19 28 -47 38 -62 17 -26 117 -189 157 -255 11 -18 62 -100 113
-182 50 -81 92 -154 92 -161 0 -6 -8 -24 -18 -38 -11 -15 -36 -56 -56 -92 -20
-36 -48 -83 -61 -105 -14 -22 -43 -71 -65 -110 -22 -38 -46 -79 -53 -89 -58
-93 -77 -127 -77 -136 0 -5 -4 -10 -10 -10 -5 0 -10 -4 -10 -9 0 -6 -31 -62
-70 -127 -38 -64 -70 -118 -70 -120 0 -1 -29 -50 -65 -109 -36 -58 -65 -107
-65 -109 0 -2 -28 -50 -63 -107 l-63 -104 -749 0 -748 0 -58 95 c-32 52 -58
101 -58 108 -1 6 -6 12 -12 12 -5 0 -8 4 -5 9 3 5 -1 14 -9 21 -8 7 -15 19
-15 26 0 8 -4 14 -10 14 -5 0 -10 4 -10 10 0 5 -20 44 -45 86 -25 41 -45 78
-45 81 0 4 -10 20 -23 37 -12 17 -29 45 -37 61 -8 17 -27 49 -42 72 -15 23
-28 44 -28 47 0 3 -14 29 -31 58 -18 29 -40 68 -50 86 -88 153 -130 225 -147
252 -9 14 -15 28 -14 33 1 4 -3 7 -8 7 -6 0 -10 7 -10 15 0 8 -4 15 -10 15 -5
0 -10 6 -10 13 0 7 -13 34 -30 60 -34 54 -34 51 32 164 26 44 48 86 48 92 0 6
4 11 9 11 5 0 11 8 14 18 4 9 18 37 33 62 15 25 36 61 46 80 11 19 34 60 51
90 18 30 39 67 47 82 8 14 87 153 175 307 88 155 176 310 195 346 27 49 41 65
60 67 39 5 1460 2 1464 -3z"/>
</g>
</svg>
